<svg xmlns="http://www.w3.org/2000/svg" width="300" height="300" viewBox="0 0 300 300" xmlns:sketchjs="https://sketch.io/dtd/" sketchjs:version="3" sketchjs:keywords="rocket, spaceship, liftoff" sketchjs:license="CC BY" sketchjs:source="[Logomakr](http://logomakr.com)"><path fill="#F18531" d="M132.33 290.533l13.411-39.888-8.971 3.833-4.44 36.055zm34.044-35.557l7.388 25.364-1.858-22.729-5.53-2.635zm1.719-23.908l11.99 34.291-5.646-41.704-6.344 7.413zm-66.129-18.496l19.379-15.171-15.381-33.216-3.998 48.387zm103.037-48.323l-1.733 74.996 9.899-54.076-8.166-20.92zm-41.741 57.893l10.162-4.303-12.263-15.246 2.101 19.549zm-27.594-4.01l27.594 4.01-16.672-52.974-10.922 48.964zm15.828 53.301l7.796-8.432-8.487.236.691 8.196zm21.928-53.594l7.51-26.561-6.219-40.142-1.291 66.703z"/><path fill="#EB622E" d="M105.961 164.186l15.381 33.216 14.613-37.204-29.994 3.988zm76.536-2.755l5.611-14.498-16.198-24.078 10.587 38.576zm-1.451 30.594l1.451-30.595-7.784-10.294 6.333 40.889zm-73.535 49.254l13.832-43.878-19.379 15.171 5.547 28.707zm24.231 16.066l4.221-35.286-10.834 20.156 6.613 15.13zm6.791-31.289l12.488 27.174-1.092-19.228-11.396-7.946zm22.626-23.463l13.554-51.456-23.166-30.621 9.612 82.077zm26.949-55.66l9.612 75.671L205 164.25l-16.892-17.317zm-52.442 71.199l10.922-48.964-18.11 20.224 7.188 28.74z"/><path fill="#E8482C" d="M156.777 256.313l10.491-12.868-7.8-4.571-2.691 17.439zm-50.816-92.127l29.995-3.988-13.591-12.646-16.404 16.634zm45.586-43.67l14.606 19.308 5.811-47.201-20.417 27.893zm29.385 70.762l14.831 14.933-7.654-59.278-7.177 44.345zm16.789 31.326l5.517 17.911 1.764-76.266-7.281 58.355zm-95.757-10.032l3.998-48.387-8.769 23.989 4.771 24.398zm59.882-183.525l.009-.193-.36-.482-.193-.371-.003.109-7.78-10.403 6.993 40.646 14.782-3.489-13.448-25.817zm21.758 58.933l-11.693 34.874 14.782-3.489-3.089-31.385zm-59.208 9.45l-2.031 50.122 12.289-17.362-10.258-32.76zm36.115-39.077l-25.856 71.837 19.47-30.453 6.386-41.384zm11.399 64.501l-5.757 16.969 8.559 11.315-13.553 51.454 12.263 15.246 1.291-66.699 7.784 10.291-10.587-38.576zm-35.954 37.343l15.591-39.681-16.893 9.674 1.302 30.007zm20.157-1.834l-9.525 10.805 16.672 52.974-7.147-63.779z"/><path fill="#DC371A" d="M151.207 229.131l12.751 9.131-2.413-11.971-10.338 2.84zm28.686-159.929l-25.769 30.535 29.479-11.757-3.71-18.778zm-19.382-10.849l19.382 10.85-4.6-14.339-14.782 3.489zm-25.857 71.837l16.893-9.674 2.577-20.779-19.47 30.453zm47.843 31.241l-1.451 30.595 7.063-45.093-5.612 14.498zm-26.384-3.068l-4.566-37.847-30.204 76.885 34.77-39.038zM124.396 97.43l36.115-39.077-6.993-40.665-29.122 79.742z"/><path fill="#C93416" d="M183.71 87.604l-11.746 5.019-5.811 47.201 17.557-52.22zm-23.199-29.251l-6.387 41.385 25.769-30.535-19.382-10.85zm-6.925-40.856l-17.45 31.614-11.42 47.974-.32.346 10.258 32.76 25.856-71.837-35.652 38.576 28.728-79.433zm-2.039 103.019l20.417-27.893-17.84 7.114-2.577 20.779zm35.145-1.151l-14.782 3.489 15.499 23.039-.717-26.528zm-50.736 40.832l-1.302-30.007-12.289 17.362 13.591 12.645z"/></svg>